<svg xmlns="http://www.w3.org/2000/svg" xmlns:xlink="http://www.w3.org/1999/xlink" width="420" zoomAndPan="magnify" viewBox="0 0 315 231.75" height="309" preserveAspectRatio="xMidYMid meet" version="1.0"><defs><g><g id="id1"/></g><clipPath id="id2"><path d="M 2 0 L 270 0 L 270 199 L 2 199 Z M 2 0 " clip-rule="nonzero"/></clipPath><clipPath id="id3"><path d="M 242.78125 63.90625 C 244.578125 58.890625 245.476562 53.359375 245.347656 47.699219 C 245.089844 22.613281 224.925781 2.03125 200.140625 0.875 C 185.5 0.230469 172.140625 6.40625 163.023438 16.3125 C 154.675781 25.445312 140.804688 26.859375 130.402344 20.296875 C 116.402344 11.421875 99.578125 6.664062 81.722656 7.5625 C 39.085938 9.621094 4.535156 44.226562 2.480469 86.933594 C 0.167969 134.917969 38.441406 174.539062 85.835938 174.539062 C 99.578125 174.539062 112.675781 171.195312 124.109375 165.277344 C 135.410156 159.359375 149.152344 162.445312 156.730469 172.738281 C 170.34375 191.261719 193.976562 201.941406 219.53125 196.792969 C 241.496094 192.421875 263.457031 170.292969 267.824219 148.167969 C 272.191406 125.398438 264.226562 104.171875 249.457031 90.277344 C 242.265625 83.589844 239.570312 73.171875 242.78125 63.90625 Z M 169.445312 86.035156 C 169.316406 86.164062 169.316406 86.164062 169.1875 86.292969 C 169.1875 86.164062 169.1875 86.035156 169.1875 85.777344 C 169.1875 85.90625 169.316406 86.035156 169.445312 86.035156 Z M 169.445312 86.035156 " clip-rule="nonzero"/></clipPath><linearGradient x1="-1.7" gradientTransform="matrix(1.284329, 0, 0, 1.28641, 2.353079, 0.873688)" y1="76.683998" x2="210.100005" gradientUnits="userSpaceOnUse" y2="76.683998" xlink:type="simple" xlink:actuate="onLoad" id="id4" xlink:show="other"><stop stop-opacity="1" stop-color="rgb(100%, 83.499146%, 24.299622%)" offset="0"/><stop stop-opacity="1" stop-color="rgb(100%, 83.372498%, 24.205017%)" offset="0.015625"/><stop stop-opacity="1" stop-color="rgb(100%, 83.117676%, 24.012756%)" offset="0.0234375"/><stop stop-opacity="1" stop-color="rgb(100%, 82.858276%, 23.81897%)" offset="0.03125"/><stop stop-opacity="1" stop-color="rgb(100%, 82.597351%, 23.625183%)" offset="0.0390625"/><stop stop-opacity="1" stop-color="rgb(100%, 82.337952%, 23.431396%)" offset="0.046875"/><stop stop-opacity="1" stop-color="rgb(100%, 82.078552%, 23.236084%)" offset="0.0546875"/><stop stop-opacity="1" stop-color="rgb(100%, 81.819153%, 23.042297%)" offset="0.0625"/><stop stop-opacity="1" stop-color="rgb(100%, 81.559753%, 22.848511%)" offset="0.0703125"/><stop stop-opacity="1" stop-color="rgb(100%, 81.300354%, 22.654724%)" offset="0.078125"/><stop stop-opacity="1" stop-color="rgb(100%, 81.040955%, 22.460938%)" offset="0.0859375"/><stop stop-opacity="1" stop-color="rgb(100%, 80.781555%, 22.267151%)" offset="0.09375"/><stop stop-opacity="1" stop-color="rgb(100%, 80.522156%, 22.073364%)" offset="0.101562"/><stop stop-opacity="1" stop-color="rgb(100%, 80.262756%, 21.878052%)" offset="0.109375"/><stop stop-opacity="1" stop-color="rgb(100%, 80.003357%, 21.684265%)" offset="0.117188"/><stop stop-opacity="1" stop-color="rgb(100%, 79.743958%, 21.490479%)" offset="0.125"/><stop stop-opacity="1" stop-color="rgb(100%, 79.484558%, 21.296692%)" offset="0.132812"/><stop stop-opacity="1" stop-color="rgb(100%, 79.225159%, 21.102905%)" offset="0.140625"/><stop stop-opacity="1" stop-color="rgb(100%, 78.965759%, 20.909119%)" offset="0.148438"/><stop stop-opacity="1" stop-color="rgb(100%, 78.70636%, 20.713806%)" offset="0.15625"/><stop stop-opacity="1" stop-color="rgb(100%, 78.445435%, 20.52002%)" offset="0.164062"/><stop stop-opacity="1" stop-color="rgb(100%, 78.186035%, 20.326233%)" offset="0.171875"/><stop stop-opacity="1" stop-color="rgb(100%, 77.926636%, 20.132446%)" offset="0.179687"/><stop stop-opacity="1" stop-color="rgb(100%, 77.667236%, 19.93866%)" offset="0.1875"/><stop stop-opacity="1" stop-color="rgb(100%, 77.407837%, 19.744873%)" offset="0.195312"/><stop stop-opacity="1" stop-color="rgb(100%, 77.148438%, 19.551086%)" offset="0.203125"/><stop stop-opacity="1" stop-color="rgb(100%, 76.889038%, 19.355774%)" offset="0.210937"/><stop stop-opacity="1" stop-color="rgb(100%, 76.629639%, 19.161987%)" offset="0.21875"/><stop stop-opacity="1" stop-color="rgb(100%, 76.370239%, 18.968201%)" offset="0.226562"/><stop stop-opacity="1" stop-color="rgb(100%, 76.11084%, 18.774414%)" offset="0.234375"/><stop stop-opacity="1" stop-color="rgb(100%, 75.85144%, 18.580627%)" offset="0.242187"/><stop stop-opacity="1" stop-color="rgb(100%, 75.592041%, 18.386841%)" offset="0.25"/><stop stop-opacity="1" stop-color="rgb(100%, 75.332642%, 18.191528%)" offset="0.257812"/><stop stop-opacity="1" stop-color="rgb(100%, 75.073242%, 17.997742%)" offset="0.265625"/><stop stop-opacity="1" stop-color="rgb(100%, 74.813843%, 17.803955%)" offset="0.273438"/><stop stop-opacity="1" stop-color="rgb(100%, 74.554443%, 17.610168%)" offset="0.28125"/><stop stop-opacity="1" stop-color="rgb(100%, 74.293518%, 17.416382%)" offset="0.289062"/><stop stop-opacity="1" stop-color="rgb(100%, 74.034119%, 17.222595%)" offset="0.296875"/><stop stop-opacity="1" stop-color="rgb(100%, 73.774719%, 17.028809%)" offset="0.304688"/><stop stop-opacity="1" stop-color="rgb(100%, 73.51532%, 16.833496%)" offset="0.3125"/><stop stop-opacity="1" stop-color="rgb(100%, 73.25592%, 16.639709%)" offset="0.320312"/><stop stop-opacity="1" stop-color="rgb(100%, 72.996521%, 16.445923%)" offset="0.328125"/><stop stop-opacity="1" stop-color="rgb(100%, 72.737122%, 16.252136%)" offset="0.335938"/><stop stop-opacity="1" stop-color="rgb(100%, 72.477722%, 16.05835%)" offset="0.34375"/><stop stop-opacity="1" stop-color="rgb(100%, 72.218323%, 15.864563%)" offset="0.351562"/><stop stop-opacity="1" stop-color="rgb(100%, 71.958923%, 15.66925%)" offset="0.359375"/><stop stop-opacity="1" stop-color="rgb(100%, 71.699524%, 15.475464%)" offset="0.367187"/><stop stop-opacity="1" stop-color="rgb(100%, 71.440125%, 15.281677%)" offset="0.375"/><stop stop-opacity="1" stop-color="rgb(100%, 71.180725%, 15.087891%)" offset="0.382812"/><stop stop-opacity="1" stop-color="rgb(100%, 70.921326%, 14.894104%)" offset="0.390625"/><stop stop-opacity="1" stop-color="rgb(100%, 70.661926%, 14.700317%)" offset="0.398437"/><stop stop-opacity="1" stop-color="rgb(100%, 70.402527%, 14.506531%)" offset="0.40625"/><stop stop-opacity="1" stop-color="rgb(100%, 70.141602%, 14.311218%)" offset="0.414062"/><stop stop-opacity="1" stop-color="rgb(100%, 69.882202%, 14.117432%)" offset="0.421875"/><stop stop-opacity="1" stop-color="rgb(100%, 69.622803%, 13.923645%)" offset="0.429688"/><stop stop-opacity="1" stop-color="rgb(100%, 69.363403%, 13.729858%)" offset="0.4375"/><stop stop-opacity="1" stop-color="rgb(100%, 69.104004%, 13.536072%)" offset="0.445312"/><stop stop-opacity="1" stop-color="rgb(100%, 68.844604%, 13.342285%)" offset="0.453125"/><stop stop-opacity="1" stop-color="rgb(100%, 68.585205%, 13.146973%)" offset="0.460937"/><stop stop-opacity="1" stop-color="rgb(100%, 68.325806%, 12.953186%)" offset="0.46875"/><stop stop-opacity="1" stop-color="rgb(100%, 68.066406%, 12.759399%)" offset="0.476562"/><stop stop-opacity="1" stop-color="rgb(100%, 67.807007%, 12.565613%)" offset="0.484375"/><stop stop-opacity="1" stop-color="rgb(100%, 67.547607%, 12.371826%)" offset="0.492187"/><stop stop-opacity="1" stop-color="rgb(100%, 67.288208%, 12.17804%)" offset="0.5"/><stop stop-opacity="1" stop-color="rgb(100%, 67.028809%, 11.984253%)" offset="0.507812"/><stop stop-opacity="1" stop-color="rgb(100%, 66.769409%, 11.78894%)" offset="0.515625"/><stop stop-opacity="1" stop-color="rgb(100%, 66.51001%, 11.595154%)" offset="0.523437"/><stop stop-opacity="1" stop-color="rgb(100%, 66.25061%, 11.401367%)" offset="0.53125"/><stop stop-opacity="1" stop-color="rgb(100%, 65.989685%, 11.207581%)" offset="0.539062"/><stop stop-opacity="1" stop-color="rgb(100%, 65.730286%, 11.013794%)" offset="0.546875"/><stop stop-opacity="1" stop-color="rgb(100%, 65.470886%, 10.820007%)" offset="0.554687"/><stop stop-opacity="1" stop-color="rgb(100%, 65.211487%, 10.624695%)" offset="0.5625"/><stop stop-opacity="1" stop-color="rgb(100%, 64.952087%, 10.430908%)" offset="0.570312"/><stop stop-opacity="1" stop-color="rgb(100%, 64.692688%, 10.237122%)" offset="0.578125"/><stop stop-opacity="1" stop-color="rgb(100%, 64.433289%, 10.043335%)" offset="0.585937"/><stop stop-opacity="1" stop-color="rgb(100%, 64.173889%, 9.849548%)" offset="0.59375"/><stop stop-opacity="1" stop-color="rgb(100%, 63.91449%, 9.655762%)" offset="0.601562"/><stop stop-opacity="1" stop-color="rgb(100%, 63.65509%, 9.460449%)" offset="0.609375"/><stop stop-opacity="1" stop-color="rgb(100%, 63.395691%, 9.266663%)" offset="0.617187"/><stop stop-opacity="1" stop-color="rgb(100%, 63.136292%, 9.072876%)" offset="0.625"/><stop stop-opacity="1" stop-color="rgb(100%, 62.876892%, 8.879089%)" offset="0.632812"/><stop stop-opacity="1" stop-color="rgb(100%, 62.617493%, 8.685303%)" offset="0.640625"/><stop stop-opacity="1" stop-color="rgb(100%, 62.358093%, 8.491516%)" offset="0.648438"/><stop stop-opacity="1" stop-color="rgb(100%, 62.098694%, 8.297729%)" offset="0.65625"/><stop stop-opacity="1" stop-color="rgb(100%, 61.837769%, 8.102417%)" offset="0.664062"/><stop stop-opacity="1" stop-color="rgb(100%, 61.578369%, 7.90863%)" offset="0.671875"/><stop stop-opacity="1" stop-color="rgb(100%, 61.31897%, 7.714844%)" offset="0.679687"/><stop stop-opacity="1" stop-color="rgb(100%, 61.05957%, 7.521057%)" offset="0.6875"/><stop stop-opacity="1" stop-color="rgb(100%, 60.800171%, 7.327271%)" offset="0.695312"/><stop stop-opacity="1" stop-color="rgb(100%, 60.540771%, 7.133484%)" offset="0.703125"/><stop stop-opacity="1" stop-color="rgb(100%, 60.281372%, 6.938171%)" offset="0.710938"/><stop stop-opacity="1" stop-color="rgb(100%, 60.021973%, 6.744385%)" offset="0.71875"/><stop stop-opacity="1" stop-color="rgb(100%, 59.762573%, 6.550598%)" offset="0.726562"/><stop stop-opacity="1" stop-color="rgb(100%, 59.503174%, 6.356812%)" offset="0.734375"/><stop stop-opacity="1" stop-color="rgb(100%, 59.243774%, 6.163025%)" offset="0.742187"/><stop stop-opacity="1" stop-color="rgb(100%, 58.984375%, 5.969238%)" offset="0.75"/><stop stop-opacity="1" stop-color="rgb(100%, 58.724976%, 5.775452%)" offset="0.757812"/><stop stop-opacity="1" stop-color="rgb(100%, 58.465576%, 5.580139%)" offset="0.765625"/><stop stop-opacity="1" stop-color="rgb(100%, 58.206177%, 5.386353%)" offset="0.773438"/><stop stop-opacity="1" stop-color="rgb(100%, 57.946777%, 5.192566%)" offset="0.78125"/><stop stop-opacity="1" stop-color="rgb(100%, 57.685852%, 4.998779%)" offset="0.789062"/><stop stop-opacity="1" stop-color="rgb(100%, 57.426453%, 4.804993%)" offset="0.796875"/><stop stop-opacity="1" stop-color="rgb(100%, 57.167053%, 4.611206%)" offset="0.804688"/><stop stop-opacity="1" stop-color="rgb(100%, 56.907654%, 4.415894%)" offset="0.8125"/><stop stop-opacity="1" stop-color="rgb(100%, 56.648254%, 4.222107%)" offset="0.820312"/><stop stop-opacity="1" stop-color="rgb(100%, 56.388855%, 4.02832%)" offset="0.828125"/><stop stop-opacity="1" stop-color="rgb(100%, 56.129456%, 3.834534%)" offset="0.835937"/><stop stop-opacity="1" stop-color="rgb(100%, 55.870056%, 3.640747%)" offset="0.84375"/><stop stop-opacity="1" stop-color="rgb(100%, 55.610657%, 3.44696%)" offset="0.851562"/><stop stop-opacity="1" stop-color="rgb(100%, 55.351257%, 3.253174%)" offset="0.859375"/><stop stop-opacity="1" stop-color="rgb(100%, 55.091858%, 3.057861%)" offset="0.867188"/><stop stop-opacity="1" stop-color="rgb(100%, 54.832458%, 2.864075%)" offset="0.875"/><stop stop-opacity="1" stop-color="rgb(100%, 54.573059%, 2.670288%)" offset="0.882812"/><stop stop-opacity="1" stop-color="rgb(100%, 54.31366%, 2.476501%)" offset="0.890625"/><stop stop-opacity="1" stop-color="rgb(100%, 54.05426%, 2.282715%)" offset="0.898437"/><stop stop-opacity="1" stop-color="rgb(100%, 53.794861%, 2.088928%)" offset="0.90625"/><stop stop-opacity="1" stop-color="rgb(100%, 53.533936%, 1.893616%)" offset="0.914062"/><stop stop-opacity="1" stop-color="rgb(100%, 53.274536%, 1.699829%)" offset="0.921875"/><stop stop-opacity="1" stop-color="rgb(100%, 53.015137%, 1.506042%)" offset="0.929687"/><stop stop-opacity="1" stop-color="rgb(100%, 52.755737%, 1.312256%)" offset="0.9375"/><stop stop-opacity="1" stop-color="rgb(100%, 52.496338%, 1.118469%)" offset="0.945312"/><stop stop-opacity="1" stop-color="rgb(100%, 52.236938%, 0.924683%)" offset="0.953125"/><stop stop-opacity="1" stop-color="rgb(100%, 51.977539%, 0.730896%)" offset="0.960938"/><stop stop-opacity="1" stop-color="rgb(100%, 51.71814%, 0.535583%)" offset="0.96875"/><stop stop-opacity="1" stop-color="rgb(100%, 51.45874%, 0.341797%)" offset="0.976562"/><stop stop-opacity="1" stop-color="rgb(100%, 51.199341%, 0.14801%)" offset="0.984375"/><stop stop-opacity="1" stop-color="rgb(100%, 51.034546%, 0.0259399%)" offset="1"/></linearGradient><clipPath id="id5"><path d="M 50 34 L 314.828125 34 L 314.828125 231 L 50 231 Z M 50 34 " clip-rule="nonzero"/></clipPath></defs><g clip-path="url(#id2)"><g clip-path="url(#id3)"><path fill="url(#id4)" d="M 0.167969 0.230469 L 0.167969 201.941406 L 272.191406 201.941406 L 272.191406 0.230469 Z M 0.167969 0.230469 " fill-rule="nonzero"/></g></g><g clip-path="url(#id5)"><path fill="rgb(100%, 100%, 100%)" d="M 152.875 230.625 C 151.71875 230.625 150.566406 230.625 149.410156 230.496094 C 135.152344 228.953125 123.722656 217.375 122.308594 202.96875 L 122.308594 202.453125 C 121.152344 187.53125 112.035156 174.667969 98.550781 168.878906 C 78.898438 160.386719 54.753906 142.507812 51.15625 106.101562 C 49.488281 88.476562 55.523438 71.367188 68.367188 57.992188 C 83.523438 42.039062 106 33.292969 128.347656 34.449219 C 165.589844 36.378906 181.644531 57.734375 188.582031 75.226562 C 193.976562 88.863281 209.386719 95.683594 223 90.40625 C 230.964844 87.320312 237.640625 85.90625 243.035156 85.90625 C 282.335938 85.90625 314.445312 117.9375 314.703125 157.300781 C 314.832031 194.09375 286.574219 224.964844 248.816406 228.953125 C 226.726562 231.269531 210.027344 223.550781 199.882812 216.476562 C 192.433594 211.332031 182.414062 212.746094 176.636719 219.5625 C 170.601562 226.640625 161.867188 230.625 152.875 230.625 Z M 124.492188 35.605469 C 103.6875 35.605469 83.394531 44.097656 69.394531 58.761719 C 56.808594 71.882812 50.902344 88.605469 52.570312 105.972656 C 56.039062 141.863281 79.796875 159.359375 99.191406 167.722656 C 113.0625 173.765625 122.4375 187.015625 123.722656 202.453125 L 123.722656 202.96875 C 125.007812 216.734375 135.921875 227.796875 149.664062 229.339844 C 159.554688 230.496094 169.1875 226.511719 175.480469 219.050781 C 181.644531 211.585938 192.433594 210.171875 200.398438 215.703125 C 210.414062 222.523438 226.855469 230.242188 248.558594 227.925781 C 285.675781 223.9375 313.546875 193.707031 313.417969 157.558594 C 313.289062 118.964844 281.695312 87.449219 243.035156 87.449219 C 237.769531 87.449219 231.21875 88.992188 223.515625 91.953125 C 209.257812 97.355469 193.074219 90.277344 187.554688 76 C 180.746094 58.761719 164.949219 37.921875 128.472656 35.992188 C 127.0625 35.605469 125.777344 35.605469 124.492188 35.605469 Z M 124.492188 35.605469 " fill-opacity="1" fill-rule="nonzero"/></g><path fill="rgb(100%, 100%, 100%)" d="M 245.863281 190.746094 L 234.945312 190.746094 L 234.945312 179.8125 C 234.945312 179.042969 234.304688 178.398438 233.53125 178.398438 C 232.761719 178.398438 232.121094 179.042969 232.121094 179.8125 L 232.121094 190.746094 L 221.203125 190.746094 C 220.433594 190.746094 219.789062 191.390625 219.789062 192.164062 C 219.789062 192.933594 220.433594 193.578125 221.203125 193.578125 L 232.121094 193.578125 L 232.121094 204.511719 C 232.121094 205.285156 232.761719 205.925781 233.53125 205.925781 C 234.304688 205.925781 234.945312 205.285156 234.945312 204.511719 L 234.945312 193.578125 L 245.863281 193.578125 C 246.632812 193.578125 247.273438 192.933594 247.273438 192.164062 C 247.273438 191.390625 246.632812 190.746094 245.863281 190.746094 Z M 245.863281 190.746094 " fill-opacity="1" fill-rule="nonzero"/><path fill="rgb(100%, 100%, 100%)" d="M 50.257812 21.714844 L 39.339844 21.714844 L 39.339844 10.90625 C 39.339844 10.136719 38.699219 9.492188 37.929688 9.492188 C 37.160156 9.492188 36.515625 10.136719 36.515625 10.90625 L 36.515625 21.84375 L 25.597656 21.84375 C 24.828125 21.84375 24.1875 22.484375 24.1875 23.257812 C 24.1875 24.027344 24.828125 24.671875 25.597656 24.671875 L 36.515625 24.671875 L 36.515625 35.605469 C 36.515625 36.378906 37.160156 37.023438 37.929688 37.023438 C 38.699219 37.023438 39.339844 36.378906 39.339844 35.605469 L 39.339844 24.671875 L 50.257812 24.671875 C 51.027344 24.671875 51.671875 24.027344 51.671875 23.257812 C 51.671875 22.484375 51.027344 21.714844 50.257812 21.714844 Z M 50.257812 21.714844 " fill-opacity="1" fill-rule="nonzero"/><path fill="rgb(100%, 100%, 100%)" d="M 104.070312 201.8125 L 95.46875 201.8125 L 95.46875 193.191406 C 95.46875 192.550781 94.953125 192.035156 94.3125 192.035156 C 93.667969 192.035156 93.15625 192.550781 93.15625 193.191406 L 93.15625 201.8125 L 84.550781 201.8125 C 83.90625 201.8125 83.394531 202.324219 83.394531 202.96875 C 83.394531 203.613281 83.90625 204.125 84.550781 204.125 L 93.15625 204.125 L 93.15625 212.746094 C 93.15625 213.386719 93.667969 213.902344 94.3125 213.902344 C 94.953125 213.902344 95.46875 213.386719 95.46875 212.746094 L 95.46875 204.125 L 104.070312 204.125 C 104.714844 204.125 105.226562 203.613281 105.226562 202.96875 C 105.097656 202.324219 104.585938 201.8125 104.070312 201.8125 Z M 104.070312 201.8125 " fill-opacity="1" fill-rule="nonzero"/><g fill="rgb(100%, 100%, 100%)" fill-opacity="1"><g transform="translate(92.347849, 93.038764)"><g><path d="M 9.71875 -13.03125 L 9.71875 -10.5625 L 4.109375 -10.5625 L 4.109375 0 L 1.390625 0 L 1.390625 -24.390625 L 11.078125 -24.390625 L 11.078125 -21.921875 L 4.109375 -21.921875 L 4.109375 -13.03125 Z M 9.71875 -13.03125 "/></g></g></g><g fill="rgb(100%, 100%, 100%)" fill-opacity="1"><g transform="translate(104.192557, 93.038764)"><g><path d="M 1.1875 -18.5 C 1.1875 -20.382812 1.644531 -21.878906 2.5625 -22.984375 C 3.476562 -24.085938 4.878906 -24.640625 6.765625 -24.640625 C 8.640625 -24.640625 10.039062 -24.085938 10.96875 -22.984375 C 11.90625 -21.878906 12.375 -20.382812 12.375 -18.5 L 12.375 -5.890625 C 12.375 -4.023438 11.90625 -2.535156 10.96875 -1.421875 C 10.039062 -0.304688 8.640625 0.25 6.765625 0.25 C 4.878906 0.25 3.476562 -0.304688 2.5625 -1.421875 C 1.644531 -2.535156 1.1875 -4.023438 1.1875 -5.890625 Z M 3.875 -5.75 C 3.875 -4.632812 4.109375 -3.769531 4.578125 -3.15625 C 5.054688 -2.539062 5.785156 -2.234375 6.765625 -2.234375 C 7.765625 -2.234375 8.492188 -2.539062 8.953125 -3.15625 C 9.421875 -3.769531 9.65625 -4.632812 9.65625 -5.75 L 9.65625 -18.640625 C 9.65625 -19.753906 9.421875 -20.617188 8.953125 -21.234375 C 8.492188 -21.847656 7.765625 -22.15625 6.765625 -22.15625 C 5.785156 -22.15625 5.054688 -21.847656 4.578125 -21.234375 C 4.109375 -20.617188 3.875 -19.753906 3.875 -18.640625 Z M 3.875 -5.75 "/></g></g></g><g fill="rgb(100%, 100%, 100%)" fill-opacity="1"><g transform="translate(117.744302, 93.038764)"><g><path d="M 6.828125 -24.390625 C 8.753906 -24.390625 10.140625 -23.910156 10.984375 -22.953125 C 11.835938 -22.003906 12.265625 -20.625 12.265625 -18.8125 L 12.265625 -16.828125 C 12.265625 -15.484375 12.019531 -14.390625 11.53125 -13.546875 C 11.039062 -12.710938 10.273438 -12.132812 9.234375 -11.8125 C 10.347656 -11.488281 11.132812 -10.890625 11.59375 -10.015625 C 12.0625 -9.140625 12.296875 -8.039062 12.296875 -6.71875 L 12.296875 -2.921875 C 12.296875 -2.390625 12.316406 -1.875 12.359375 -1.375 C 12.410156 -0.875 12.550781 -0.414062 12.78125 0 L 10.03125 0 C 9.875 -0.34375 9.757812 -0.71875 9.6875 -1.125 C 9.613281 -1.53125 9.578125 -2.144531 9.578125 -2.96875 L 9.578125 -6.796875 C 9.578125 -8.160156 9.269531 -9.101562 8.65625 -9.625 C 8.039062 -10.15625 7.164062 -10.421875 6.03125 -10.421875 L 4.109375 -10.421875 L 4.109375 0 L 1.390625 0 L 1.390625 -24.390625 Z M 6.125 -12.890625 C 7.21875 -12.890625 8.066406 -13.113281 8.671875 -13.5625 C 9.273438 -14.019531 9.578125 -14.910156 9.578125 -16.234375 L 9.578125 -18.578125 C 9.578125 -19.691406 9.363281 -20.523438 8.9375 -21.078125 C 8.507812 -21.640625 7.785156 -21.921875 6.765625 -21.921875 L 4.109375 -21.921875 L 4.109375 -12.890625 Z M 6.125 -12.890625 "/></g></g></g><g fill="rgb(100%, 100%, 100%)" fill-opacity="1"><g transform="translate(131.470233, 93.038764)"><g><path d="M 6.65625 -24.640625 C 8.539062 -24.640625 9.925781 -24.082031 10.8125 -22.96875 C 11.707031 -21.851562 12.15625 -20.363281 12.15625 -18.5 L 12.15625 -16.40625 L 9.578125 -16.40625 L 9.578125 -18.640625 C 9.578125 -19.753906 9.347656 -20.617188 8.890625 -21.234375 C 8.441406 -21.847656 7.71875 -22.15625 6.71875 -22.15625 C 5.75 -22.15625 5.03125 -21.847656 4.5625 -21.234375 C 4.101562 -20.617188 3.875 -19.753906 3.875 -18.640625 L 3.875 -5.75 C 3.875 -4.632812 4.101562 -3.769531 4.5625 -3.15625 C 5.03125 -2.539062 5.75 -2.234375 6.71875 -2.234375 C 7.71875 -2.234375 8.441406 -2.539062 8.890625 -3.15625 C 9.347656 -3.769531 9.578125 -4.632812 9.578125 -5.75 L 9.578125 -10.625 L 7.078125 -10.625 L 7.078125 -13.0625 L 12.15625 -13.0625 L 12.15625 -5.890625 C 12.15625 -4.023438 11.707031 -2.535156 10.8125 -1.421875 C 9.925781 -0.304688 8.539062 0.25 6.65625 0.25 C 4.800781 0.25 3.425781 -0.304688 2.53125 -1.421875 C 1.632812 -2.535156 1.1875 -4.023438 1.1875 -5.890625 L 1.1875 -18.5 C 1.1875 -19.425781 1.296875 -20.265625 1.515625 -21.015625 C 1.734375 -21.773438 2.066406 -22.421875 2.515625 -22.953125 C 2.972656 -23.492188 3.546875 -23.910156 4.234375 -24.203125 C 4.921875 -24.492188 5.726562 -24.640625 6.65625 -24.640625 Z M 6.65625 -24.640625 "/></g></g></g><g fill="rgb(100%, 100%, 100%)" fill-opacity="1"><g transform="translate(144.812959, 93.038764)"><g><path d="M 1.1875 -18.5 C 1.1875 -20.382812 1.644531 -21.878906 2.5625 -22.984375 C 3.476562 -24.085938 4.878906 -24.640625 6.765625 -24.640625 C 8.640625 -24.640625 10.039062 -24.085938 10.96875 -22.984375 C 11.90625 -21.878906 12.375 -20.382812 12.375 -18.5 L 12.375 -5.890625 C 12.375 -4.023438 11.90625 -2.535156 10.96875 -1.421875 C 10.039062 -0.304688 8.640625 0.25 6.765625 0.25 C 4.878906 0.25 3.476562 -0.304688 2.5625 -1.421875 C 1.644531 -2.535156 1.1875 -4.023438 1.1875 -5.890625 Z M 3.875 -5.75 C 3.875 -4.632812 4.109375 -3.769531 4.578125 -3.15625 C 5.054688 -2.539062 5.785156 -2.234375 6.765625 -2.234375 C 7.765625 -2.234375 8.492188 -2.539062 8.953125 -3.15625 C 9.421875 -3.769531 9.65625 -4.632812 9.65625 -5.75 L 9.65625 -18.640625 C 9.65625 -19.753906 9.421875 -20.617188 8.953125 -21.234375 C 8.492188 -21.847656 7.765625 -22.15625 6.765625 -22.15625 C 5.785156 -22.15625 5.054688 -21.847656 4.578125 -21.234375 C 4.109375 -20.617188 3.875 -19.753906 3.875 -18.640625 Z M 3.875 -5.75 "/></g></g></g><g fill="rgb(100%, 100%, 100%)" fill-opacity="1"><g transform="translate(158.364704, 93.038764)"><g><path d="M 4.90625 0 L 4.90625 -21.921875 L 0.421875 -21.921875 L 0.421875 -24.390625 L 12.09375 -24.390625 L 12.09375 -21.921875 L 7.59375 -21.921875 L 7.59375 0 Z M 4.90625 0 "/></g></g></g><g fill="rgb(100%, 100%, 100%)" fill-opacity="1"><g transform="translate(71.464128, 134.993504)"><g/></g></g><g fill="rgb(100%, 100%, 100%)" fill-opacity="1"><g transform="translate(76.86065, 134.993504)"><g><path d="M 6.71875 -24.390625 C 8.644531 -24.390625 10.035156 -23.859375 10.890625 -22.796875 C 11.753906 -21.742188 12.1875 -20.289062 12.1875 -18.4375 L 12.1875 -15.5 C 12.1875 -13.550781 11.726562 -12.082031 10.8125 -11.09375 C 9.894531 -10.101562 8.460938 -9.609375 6.515625 -9.609375 L 4.109375 -9.609375 L 4.109375 0 L 1.390625 0 L 1.390625 -24.390625 Z M 6.515625 -12.0625 C 7.535156 -12.0625 8.289062 -12.304688 8.78125 -12.796875 C 9.269531 -13.296875 9.515625 -14.140625 9.515625 -15.328125 L 9.515625 -18.578125 C 9.515625 -19.691406 9.296875 -20.523438 8.859375 -21.078125 C 8.429688 -21.640625 7.71875 -21.921875 6.71875 -21.921875 L 4.109375 -21.921875 L 4.109375 -12.0625 Z M 6.515625 -12.0625 "/></g></g></g><g fill="rgb(100%, 100%, 100%)" fill-opacity="1"><g transform="translate(89.785328, 134.993504)"><g><path d="M 4.140625 -4.90625 L 3.203125 0 L 0.703125 0 L 5.359375 -24.390625 L 9.296875 -24.390625 L 13.96875 0 L 11.25 0 L 10.3125 -4.90625 Z M 4.5 -7.25 L 9.9375 -7.25 L 7.171875 -21.328125 Z M 4.5 -7.25 "/></g></g></g><g fill="rgb(100%, 100%, 100%)" fill-opacity="1"><g transform="translate(104.486708, 134.993504)"><g><path d="M 6.515625 -24.640625 C 8.367188 -24.640625 9.738281 -24.085938 10.625 -22.984375 C 11.507812 -21.878906 11.953125 -20.394531 11.953125 -18.53125 L 11.953125 -17.875 L 9.375 -17.875 L 9.375 -18.671875 C 9.375 -19.785156 9.148438 -20.644531 8.703125 -21.25 C 8.265625 -21.851562 7.554688 -22.15625 6.578125 -22.15625 C 5.609375 -22.15625 4.898438 -21.851562 4.453125 -21.25 C 4.015625 -20.644531 3.796875 -19.800781 3.796875 -18.71875 C 3.796875 -17.8125 4 -17.019531 4.40625 -16.34375 C 4.8125 -15.664062 5.316406 -15.039062 5.921875 -14.46875 C 6.523438 -13.90625 7.179688 -13.347656 7.890625 -12.796875 C 8.597656 -12.253906 9.253906 -11.65625 9.859375 -11 C 10.460938 -10.351562 10.96875 -9.617188 11.375 -8.796875 C 11.78125 -7.972656 11.984375 -6.992188 11.984375 -5.859375 C 11.984375 -3.992188 11.535156 -2.507812 10.640625 -1.40625 C 9.742188 -0.300781 8.359375 0.25 6.484375 0.25 C 4.597656 0.25 3.210938 -0.300781 2.328125 -1.40625 C 1.453125 -2.507812 1.015625 -3.992188 1.015625 -5.859375 L 1.015625 -7.25 L 3.546875 -7.25 L 3.546875 -5.71875 C 3.546875 -4.601562 3.78125 -3.742188 4.25 -3.140625 C 4.71875 -2.535156 5.4375 -2.234375 6.40625 -2.234375 C 7.382812 -2.234375 8.101562 -2.535156 8.5625 -3.140625 C 9.03125 -3.742188 9.265625 -4.601562 9.265625 -5.71875 C 9.265625 -6.625 9.0625 -7.40625 8.65625 -8.0625 C 8.25 -8.726562 7.742188 -9.34375 7.140625 -9.90625 C 6.535156 -10.476562 5.882812 -11.035156 5.1875 -11.578125 C 4.488281 -12.128906 3.835938 -12.726562 3.234375 -13.375 C 2.628906 -14.03125 2.125 -14.769531 1.71875 -15.59375 C 1.3125 -16.414062 1.109375 -17.394531 1.109375 -18.53125 C 1.109375 -20.414062 1.550781 -21.90625 2.4375 -23 C 3.320312 -24.09375 4.679688 -24.640625 6.515625 -24.640625 Z M 6.515625 -24.640625 "/></g></g></g><g fill="rgb(100%, 100%, 100%)" fill-opacity="1"><g transform="translate(117.446219, 134.993504)"><g><path d="M 6.515625 -24.640625 C 8.367188 -24.640625 9.738281 -24.085938 10.625 -22.984375 C 11.507812 -21.878906 11.953125 -20.394531 11.953125 -18.53125 L 11.953125 -17.875 L 9.375 -17.875 L 9.375 -18.671875 C 9.375 -19.785156 9.148438 -20.644531 8.703125 -21.25 C 8.265625 -21.851562 7.554688 -22.15625 6.578125 -22.15625 C 5.609375 -22.15625 4.898438 -21.851562 4.453125 -21.25 C 4.015625 -20.644531 3.796875 -19.800781 3.796875 -18.71875 C 3.796875 -17.8125 4 -17.019531 4.40625 -16.34375 C 4.8125 -15.664062 5.316406 -15.039062 5.921875 -14.46875 C 6.523438 -13.90625 7.179688 -13.347656 7.890625 -12.796875 C 8.597656 -12.253906 9.253906 -11.65625 9.859375 -11 C 10.460938 -10.351562 10.96875 -9.617188 11.375 -8.796875 C 11.78125 -7.972656 11.984375 -6.992188 11.984375 -5.859375 C 11.984375 -3.992188 11.535156 -2.507812 10.640625 -1.40625 C 9.742188 -0.300781 8.359375 0.25 6.484375 0.25 C 4.597656 0.25 3.210938 -0.300781 2.328125 -1.40625 C 1.453125 -2.507812 1.015625 -3.992188 1.015625 -5.859375 L 1.015625 -7.25 L 3.546875 -7.25 L 3.546875 -5.71875 C 3.546875 -4.601562 3.78125 -3.742188 4.25 -3.140625 C 4.71875 -2.535156 5.4375 -2.234375 6.40625 -2.234375 C 7.382812 -2.234375 8.101562 -2.535156 8.5625 -3.140625 C 9.03125 -3.742188 9.265625 -4.601562 9.265625 -5.71875 C 9.265625 -6.625 9.0625 -7.40625 8.65625 -8.0625 C 8.25 -8.726562 7.742188 -9.34375 7.140625 -9.90625 C 6.535156 -10.476562 5.882812 -11.035156 5.1875 -11.578125 C 4.488281 -12.128906 3.835938 -12.726562 3.234375 -13.375 C 2.628906 -14.03125 2.125 -14.769531 1.71875 -15.59375 C 1.3125 -16.414062 1.109375 -17.394531 1.109375 -18.53125 C 1.109375 -20.414062 1.550781 -21.90625 2.4375 -23 C 3.320312 -24.09375 4.679688 -24.640625 6.515625 -24.640625 Z M 6.515625 -24.640625 "/></g></g></g><g fill="rgb(100%, 100%, 100%)" fill-opacity="1"><g transform="translate(130.40573, 134.993504)"><g><path d="M 7.875 0 L 4.140625 0 L 0.796875 -24.390625 L 3.453125 -24.390625 L 6.3125 -3.625 L 9.03125 -24.359375 L 11.703125 -24.359375 L 14.390625 -3.59375 L 17.140625 -24.390625 L 19.515625 -24.390625 L 16.203125 0 L 12.609375 0 L 10.28125 -16.546875 Z M 7.875 0 "/></g></g></g><g fill="rgb(100%, 100%, 100%)" fill-opacity="1"><g transform="translate(150.715931, 134.993504)"><g><path d="M 1.1875 -18.5 C 1.1875 -20.382812 1.644531 -21.878906 2.5625 -22.984375 C 3.476562 -24.085938 4.878906 -24.640625 6.765625 -24.640625 C 8.640625 -24.640625 10.039062 -24.085938 10.96875 -22.984375 C 11.90625 -21.878906 12.375 -20.382812 12.375 -18.5 L 12.375 -5.890625 C 12.375 -4.023438 11.90625 -2.535156 10.96875 -1.421875 C 10.039062 -0.304688 8.640625 0.25 6.765625 0.25 C 4.878906 0.25 3.476562 -0.304688 2.5625 -1.421875 C 1.644531 -2.535156 1.1875 -4.023438 1.1875 -5.890625 Z M 3.875 -5.75 C 3.875 -4.632812 4.109375 -3.769531 4.578125 -3.15625 C 5.054688 -2.539062 5.785156 -2.234375 6.765625 -2.234375 C 7.765625 -2.234375 8.492188 -2.539062 8.953125 -3.15625 C 9.421875 -3.769531 9.65625 -4.632812 9.65625 -5.75 L 9.65625 -18.640625 C 9.65625 -19.753906 9.421875 -20.617188 8.953125 -21.234375 C 8.492188 -21.847656 7.765625 -22.15625 6.765625 -22.15625 C 5.785156 -22.15625 5.054688 -21.847656 4.578125 -21.234375 C 4.109375 -20.617188 3.875 -19.753906 3.875 -18.640625 Z M 3.875 -5.75 "/></g></g></g><g fill="rgb(100%, 100%, 100%)" fill-opacity="1"><g transform="translate(164.267676, 134.993504)"><g><path d="M 6.828125 -24.390625 C 8.753906 -24.390625 10.140625 -23.910156 10.984375 -22.953125 C 11.835938 -22.003906 12.265625 -20.625 12.265625 -18.8125 L 12.265625 -16.828125 C 12.265625 -15.484375 12.019531 -14.390625 11.53125 -13.546875 C 11.039062 -12.710938 10.273438 -12.132812 9.234375 -11.8125 C 10.347656 -11.488281 11.132812 -10.890625 11.59375 -10.015625 C 12.0625 -9.140625 12.296875 -8.039062 12.296875 -6.71875 L 12.296875 -2.921875 C 12.296875 -2.390625 12.316406 -1.875 12.359375 -1.375 C 12.410156 -0.875 12.550781 -0.414062 12.78125 0 L 10.03125 0 C 9.875 -0.34375 9.757812 -0.71875 9.6875 -1.125 C 9.613281 -1.53125 9.578125 -2.144531 9.578125 -2.96875 L 9.578125 -6.796875 C 9.578125 -8.160156 9.269531 -9.101562 8.65625 -9.625 C 8.039062 -10.15625 7.164062 -10.421875 6.03125 -10.421875 L 4.109375 -10.421875 L 4.109375 0 L 1.390625 0 L 1.390625 -24.390625 Z M 6.125 -12.890625 C 7.21875 -12.890625 8.066406 -13.113281 8.671875 -13.5625 C 9.273438 -14.019531 9.578125 -14.910156 9.578125 -16.234375 L 9.578125 -18.578125 C 9.578125 -19.691406 9.363281 -20.523438 8.9375 -21.078125 C 8.507812 -21.640625 7.785156 -21.921875 6.765625 -21.921875 L 4.109375 -21.921875 L 4.109375 -12.890625 Z M 6.125 -12.890625 "/></g></g></g><g fill="rgb(100%, 100%, 100%)" fill-opacity="1"><g transform="translate(177.993607, 134.993504)"><g><path d="M 7.109375 -24.390625 C 9.015625 -24.390625 10.410156 -23.847656 11.296875 -22.765625 C 12.191406 -21.691406 12.640625 -20.210938 12.640625 -18.328125 L 12.640625 -6.03125 C 12.640625 -4.144531 12.191406 -2.664062 11.296875 -1.59375 C 10.410156 -0.53125 9.015625 0 7.109375 0 L 1.390625 0 L 1.390625 -24.390625 Z M 7.078125 -2.46875 C 8.046875 -2.46875 8.769531 -2.765625 9.25 -3.359375 C 9.726562 -3.953125 9.96875 -4.804688 9.96875 -5.921875 L 9.96875 -18.46875 C 9.96875 -19.582031 9.726562 -20.4375 9.25 -21.03125 C 8.769531 -21.625 8.03125 -21.921875 7.03125 -21.921875 L 4.109375 -21.921875 L 4.109375 -2.46875 Z M 7.078125 -2.46875 "/></g></g></g></svg>